<?xml version="1.0" encoding="UTF-8"?>
<svg version="1.1" xmlns="http://www.w3.org/2000/svg" width="444" height="444">
<path d="M0 0 C146.52 0 293.04 0 444 0 C444 146.52 444 293.04 444 444 C297.48 444 150.96 444 0 444 C0 297.48 0 150.96 0 0 Z " fill="#FCFDFC" transform="translate(0,0)"/>
<path d="M0 0 C3.27790941 0.01850393 6.55553938 0.02050753 9.83349609 0.02026367 C11.91292564 0.02517091 13.99235327 0.03099573 16.07177734 0.0378418 C17.05390198 0.03895462 18.03602661 0.04006744 19.0479126 0.04121399 C19.94685242 0.04759384 20.84579224 0.05397369 21.77197266 0.06054688 C22.56549133 0.06435867 23.35901001 0.06817047 24.17657471 0.07209778 C25.99365234 0.20581055 25.99365234 0.20581055 26.99365234 1.20581055 C29.019441 1.42028083 31.04616976 1.62810995 33.07592773 1.80102539 C46.40979916 2.94045367 58.69257961 5.76439484 70.99365234 11.20581055 C70.36428795 14.14284439 69.36945061 16.54369683 67.99365234 19.20581055 C61.56937338 18.63347739 55.63765181 17.49485501 49.43115234 15.76831055 C47.03202708 15.11576397 44.63262767 14.46451965 42.23144531 13.81958008 C40.259687 13.27877707 38.29937061 12.69661999 36.34130859 12.1081543 C25.07114252 9.34594109 12.575637 10.02394906 1.05615234 10.01831055 C-0.30127112 10.00611666 -1.65869302 9.99374725 -3.01611328 9.98120117 C-9.77524272 9.97118765 -15.52898239 10.34506579 -22.00634766 12.20581055 C-24.08541226 12.45478966 -26.157326 12.59636362 -28.24633789 12.73632812 C-45.50980413 13.93546486 -63.83452347 19.10766084 -79.11572266 27.3425293 C-81.00634766 28.20581055 -81.00634766 28.20581055 -84.00634766 28.20581055 C-84.00634766 28.86581055 -84.00634766 29.52581055 -84.00634766 30.20581055 C-85.03501953 30.63506836 -86.06369141 31.06432617 -87.12353516 31.5065918 C-97.66550204 36.04307228 -106.76964478 42.29736694 -115.88134766 49.20581055 C-116.76064941 49.86991943 -117.63995117 50.53402832 -118.54589844 51.21826172 C-123.46623693 55.01220713 -127.97600973 58.97587781 -132.27661133 63.46240234 C-133.91902986 65.11780259 -135.6162631 66.57322426 -137.44384766 68.01831055 C-142.32724943 72.1283229 -146.08550922 77.20225693 -150.00634766 82.20581055 C-150.84456934 83.25424354 -151.68311577 84.30241696 -152.52197266 85.3503418 C-165.48463723 101.6911101 -176.21753983 120.45655143 -183.00634766 140.20581055 C-183.41240234 141.27831055 -183.81845703 142.35081055 -184.23681641 143.45581055 C-185.64523525 147.33871296 -186.85659827 151.24025985 -188.00634766 155.20581055 C-188.35560303 156.35291504 -188.35560303 156.35291504 -188.71191406 157.52319336 C-194.50861866 177.41669756 -193.53378377 197.97516093 -193.27978516 218.48706055 C-193.26903458 219.43316193 -193.258284 220.37926331 -193.24720764 221.35403442 C-193.71036471 230.90412174 -193.71036471 230.90412174 -191.00634766 239.20581055 C-190.6557738 241.3280344 -190.32738795 243.45391863 -190.00634766 245.58081055 C-186.84562165 263.88177793 -180.1621382 282.06836103 -171.00634766 298.20581055 C-170.63429199 298.88224609 -170.26223633 299.55868164 -169.87890625 300.25561523 C-160.8318038 316.67819571 -146.23053222 342.59371826 -129.00634766 351.20581055 C-129.00634766 317.87581055 -129.00634766 284.54581055 -129.00634766 250.20581055 C-130.32634766 249.87581055 -131.64634766 249.54581055 -133.00634766 249.20581055 C-137.7179715 247.5526092 -142.24323129 245.67479126 -146.78369141 243.59643555 C-147.7645874 243.14816406 -148.7454834 242.69989258 -149.75610352 242.23803711 C-150.86997437 241.72708496 -150.86997437 241.72708496 -152.00634766 241.20581055 C-152.13296512 234.70984676 -152.22062112 228.21420018 -152.28100586 221.71728516 C-152.30617395 219.50655221 -152.34031146 217.29590267 -152.38354492 215.08544922 C-152.44409445 211.91051688 -152.47253436 208.73668294 -152.49462891 205.5612793 C-152.52043533 204.57056931 -152.54624176 203.57985931 -152.5728302 202.55912781 C-152.57387512 200.01159352 -152.53414255 197.69800732 -152.00634766 195.20581055 C-148.54418793 192.10761027 -144.24849812 191.26408066 -139.81884766 190.08081055 C-130.92567482 187.59219836 -122.23784644 184.58049704 -113.53295898 181.50415039 C-107.12924894 179.25028929 -100.69914797 177.16471837 -94.20263672 175.19482422 C-90.10363601 173.92648845 -86.04706115 172.54737912 -81.98681641 171.16088867 C-72.74157624 168.0044207 -63.62531278 165.00936651 -54.00634766 163.20581055 C-52.02634766 165.51581055 -50.04634766 167.82581055 -48.00634766 170.20581055 C-76.30190346 180.94517358 -76.30190346 180.94517358 -90.5456543 184.94897461 C-100.23209983 187.74750007 -109.72032361 191.19995648 -119.22729492 194.54833984 C-119.91470261 194.78853851 -120.60211029 195.02873718 -121.31034851 195.2762146 C-123.20746005 195.93914813 -125.10280712 196.60712472 -126.99804688 197.27539062 C-130.00634766 198.20581055 -130.00634766 198.20581055 -133.00634766 198.20581055 C-133.00634766 198.86581055 -133.00634766 199.52581055 -133.00634766 200.20581055 C-131.89259766 200.43268555 -130.77884766 200.65956055 -129.63134766 200.89331055 C-125.27997307 201.97159493 -121.61627715 203.83447408 -117.66259766 205.90893555 C-114.0607785 207.66747078 -110.34715008 208.94580856 -106.54931641 210.21362305 C-103.81619391 211.28000264 -101.50690776 212.67923649 -99.00634766 214.20581055 C-97.52291554 214.86917632 -96.02182717 215.49434073 -94.50634766 216.08081055 C-93.64654297 216.41725586 -92.78673828 216.75370117 -91.90087891 217.1003418 C-89.81746099 217.89603312 -87.73116026 218.68419095 -85.64306641 219.4675293 C-84.50482422 219.89678711 -83.36658203 220.32604492 -82.19384766 220.76831055 C-80.60636719 221.35805664 -80.60636719 221.35805664 -78.98681641 221.9597168 C-76.12540229 223.15603541 -73.6336489 224.56876546 -71.00634766 226.20581055 C-66.64023805 228.20694412 -62.18889613 229.89054555 -57.69384766 231.58081055 C-52.69791257 233.48511646 -47.95201844 235.63123676 -43.20556641 238.0847168 C-40.20252152 239.61557627 -37.11528293 240.90571034 -34.00634766 242.20581055 C-31.00130253 243.52780822 -28.00449468 244.86825337 -25.00634766 246.20581055 C-22.75807629 247.20547446 -20.50949155 248.2044163 -18.26025391 249.2019043 C-16.74507825 249.87677456 -15.23207796 250.5565481 -13.72119141 251.2409668 C-11.49037039 252.24732345 -9.2511918 253.2311807 -7.00634766 254.20581055 C-6.30251953 254.5203418 -5.59869141 254.83487305 -4.87353516 255.15893555 C-0.42637606 257.01896406 2.37607438 257.61935482 6.99365234 256.20581055 C9.30555042 255.20169369 11.58437191 254.1602102 13.84521484 253.0456543 C15.99365234 252.20581055 15.99365234 252.20581055 19.99365234 252.20581055 C19.99365234 251.54581055 19.99365234 250.88581055 19.99365234 250.20581055 C24.18879324 248.34502573 28.38802239 246.49392324 32.59130859 244.65161133 C34.02020445 244.02371403 35.44795354 243.39320023 36.87451172 242.76000977 C38.92687845 241.8495936 40.9832041 240.94870978 43.04052734 240.04956055 C43.9938797 239.62302185 43.9938797 239.62302185 44.9664917 239.18786621 C48.28894979 237.7474098 50.29123635 237.20581055 53.99365234 237.20581055 C53.99365234 236.54581055 53.99365234 235.88581055 53.99365234 235.20581055 C58.90095765 233.06029102 63.81227171 230.92433494 68.72753906 228.79711914 C70.39892241 228.07219351 72.06918215 227.34467155 73.73828125 226.61450195 C76.13820076 225.56516178 78.5420117 224.52523799 80.94677734 223.48706055 C81.69171448 223.15895386 82.43665161 222.83084717 83.2041626 222.49279785 C86.74887054 220.97298202 89.07836525 220.20581055 92.99365234 220.20581055 C92.99365234 219.54581055 92.99365234 218.88581055 92.99365234 218.20581055 C93.51539032 217.9847464 94.0371283 217.76368225 94.57467651 217.53591919 C99.9949783 215.23817855 105.41237696 212.93369684 110.828125 210.62524414 C112.85082214 209.76412801 114.87425798 208.90474492 116.8984375 208.04711914 C119.80452381 206.81548531 122.70791362 205.57768345 125.61083984 204.33862305 C126.519216 203.95521759 127.42759216 203.57181213 128.36349487 203.17678833 C129.20421539 202.81656586 130.04493591 202.45634338 130.91113281 202.08520508 C131.65281708 201.76987823 132.39450134 201.45455139 133.15866089 201.12966919 C135.1725861 200.23594247 135.1725861 200.23594247 136.99365234 198.20581055 C126.85972845 194.56138928 116.72888272 191.02733051 106.37646484 188.05297852 C95.20965286 184.84409434 84.03171012 181.60412345 73.32177734 177.07299805 C69.56459571 175.67351093 65.67692349 174.84780132 61.77880859 173.93237305 C58.30058813 173.02501119 55.2321188 171.75144226 51.99365234 170.20581055 C54.13482881 164.1116929 54.13482881 164.1116929 56.99365234 162.20581055 C61.16102106 162.76493957 65.07772547 164.13416257 69.06396484 165.4362793 C69.76161453 165.663255 70.45926422 165.89023071 71.17805481 166.12408447 C73.49248138 166.87778153 75.80557099 167.63549603 78.11865234 168.39331055 C79.7495121 168.92554123 81.38045455 169.45751857 83.01147461 169.98925781 C86.49730336 171.12598906 89.98264171 172.2642099 93.46777344 173.40307617 C99.14676631 175.25747219 104.82980409 177.09928664 110.51318359 178.94018555 C113.38473584 179.87132988 116.25620243 180.80273777 119.12762451 181.73428345 C120.9746398 182.33316709 122.821844 182.93146849 124.66925049 183.52914429 C154.42322852 193.15886133 154.42322852 193.15886133 158.99365234 196.20581055 C159.3813324 198.05857849 159.3813324 198.05857849 159.39770508 200.33251953 C159.41673134 201.60910683 159.41673134 201.60910683 159.43614197 202.91148376 C159.43173851 204.29274193 159.43173851 204.29274193 159.42724609 205.7019043 C159.43248795 206.64638931 159.4377298 207.59087433 159.44313049 208.5639801 C159.44956112 210.56380224 159.44820029 212.56366216 159.43969727 214.56347656 C159.43119515 217.62788149 159.45992139 220.6904185 159.49169922 223.75463867 C159.49331143 225.69539332 159.49273331 227.63615128 159.48974609 229.5769043 C159.50098007 230.49571884 159.51221405 231.41453339 159.52378845 232.3611908 C159.5144075 233.21540115 159.50502655 234.06961151 159.49536133 234.94970703 C159.49511208 236.07650124 159.49511208 236.07650124 159.49485779 237.22605896 C158.99365234 239.20581055 158.99365234 239.20581055 154.99365234 242.20581055 C149.05365234 244.84581055 143.11365234 247.48581055 136.99365234 250.20581055 C136.66365234 283.53581055 136.33365234 316.86581055 135.99365234 351.20581055 C136.65365234 351.20581055 137.31365234 351.20581055 137.99365234 351.20581055 C137.99365234 350.54581055 137.99365234 349.88581055 137.99365234 349.20581055 C139.32177734 347.97143555 139.32177734 347.97143555 141.24365234 346.45581055 C162.51858101 328.30070357 179.60998559 299.76165794 188.55615234 273.58081055 C189.0032959 272.27950195 189.0032959 272.27950195 189.45947266 270.9519043 C194.30708563 256.58313634 196.96564062 242.20080635 198.99365234 227.20581055 C199.65365234 227.20581055 200.31365234 227.20581055 200.99365234 227.20581055 C200.89885978 221.64117899 200.79251843 216.07692006 200.67626953 210.51269531 C200.63839851 208.6266862 200.60347966 206.74061507 200.57177734 204.85449219 C200.31585621 189.80712932 199.38049807 175.34014898 195.55615234 160.70581055 C195.35183594 159.87823242 195.14751953 159.0506543 194.93701172 158.19799805 C193.68578094 153.28662488 192.07074823 148.82545798 189.99365234 144.20581055 C189.54008524 142.58592805 189.08737319 140.96577564 188.64599609 139.3425293 C186.18441658 131.27975089 182.86590907 123.56565319 178.91162109 116.1315918 C177.99365234 114.20581055 177.99365234 114.20581055 177.99365234 112.20581055 C177.33365234 112.20581055 176.67365234 112.20581055 175.99365234 112.20581055 C175.39423828 110.69760742 175.39423828 110.69760742 174.78271484 109.15893555 C173.04957373 105.12507494 170.83056468 101.57996236 168.36865234 97.95581055 C167.9277124 97.30249756 167.48677246 96.64918457 167.0324707 95.97607422 C150.34686479 71.57976381 128.57337931 53.18433292 103.99365234 37.20581055 C104.71731549 33.86150318 105.8108073 31.86318712 107.99365234 29.20581055 C109.64365234 29.53581055 111.29365234 29.86581055 112.99365234 30.20581055 C112.99365234 30.86581055 112.99365234 31.52581055 112.99365234 32.20581055 C113.71037109 32.45975586 114.42708984 32.71370117 115.16552734 32.9753418 C120.29953151 35.20905908 124.54755706 38.84517576 128.99365234 42.20581055 C129.77353516 42.7884668 130.55341797 43.37112305 131.35693359 43.97143555 C152.0375379 59.69310276 168.03884929 78.47744244 181.99365234 100.20581055 C182.89470703 101.60186523 182.89470703 101.60186523 183.81396484 103.02612305 C186.80135601 107.81495613 189.11453126 112.57170891 191.03662109 117.8815918 C191.94998102 120.27708218 191.94998102 120.27708218 193.45068359 122.5690918 C195.2512124 125.64594482 196.34250773 128.70854715 197.49365234 132.08081055 C198.76355297 135.7460327 200.03137392 139.28995867 201.61865234 142.83081055 C204.97640145 151.07255834 206.36419042 159.81132595 207.56396484 168.58862305 C207.85634472 171.17819465 207.85634472 171.17819465 208.99365234 173.20581055 C210.06405987 183.77155105 210.18008177 194.41351423 210.17895508 205.0246582 C210.18115779 207.3365276 210.19946472 209.64792993 210.21826172 211.9597168 C210.2536508 221.2152232 209.61640518 230.06658173 207.99365234 239.20581055 C207.84226807 240.09236328 207.69088379 240.97891602 207.53491211 241.89233398 C204.90951243 256.70047068 201.65704955 271.63817046 194.99365234 285.20581055 C192.72955229 290.1403876 190.5933978 295.00663781 188.99365234 300.20581055 C188.33365234 300.20581055 187.67365234 300.20581055 186.99365234 300.20581055 C186.76162109 301.02436523 186.52958984 301.84291992 186.29052734 302.6862793 C184.71509495 306.96177504 182.61459092 310.64004819 180.24365234 314.51831055 C179.76702148 315.29867676 179.29039062 316.07904297 178.79931641 316.88305664 C173.30902078 325.62848911 166.76479115 333.43486697 159.99365234 341.20581055 C159.3994751 341.89280029 158.80529785 342.57979004 158.19311523 343.28759766 C149.0067239 353.8656782 139.23932414 362.885022 127.99365234 371.20581055 C127.45482422 371.60541992 126.91599609 372.0050293 126.36083984 372.41674805 C106.64359361 386.88901253 84.83883621 396.64555978 61.70947266 404.26635742 C59.96231674 404.87073138 58.22974198 405.52006029 56.52001953 406.22338867 C40.65560222 412.66697089 23.51847439 412.69349393 6.6496582 412.59692383 C3.29971942 412.58077954 -0.04902228 412.59689853 -3.39892578 412.6159668 C-15.1871763 412.62663027 -26.56868727 412.33464128 -38.00634766 409.20581055 C-38.33634766 408.87581055 -38.66634766 408.54581055 -39.00634766 408.20581055 C-40.827531 407.8923976 -42.64985721 407.58447554 -44.47680664 407.30664062 C-53.1910815 405.96548041 -60.90876866 403.77423519 -69.00634766 400.20581055 C-69.72000488 399.89417969 -70.43366211 399.58254883 -71.16894531 399.26147461 C-75.72990382 397.26779088 -80.2760407 395.24312323 -84.8112793 393.19165039 C-86.31221579 392.51755612 -87.8168164 391.85157724 -89.32446289 391.19262695 C-105.97311293 383.91048604 -120.58511963 373.570734 -133.85791016 361.2019043 C-135.81675637 359.38195808 -137.82930641 357.66863681 -139.88134766 355.95581055 C-152.97959531 344.49484385 -163.64981356 330.51222148 -172.60839844 315.67333984 C-174.34656276 312.80018827 -176.05095648 310.15073395 -178.17041016 307.53393555 C-180.01420217 305.19585036 -180.98837148 303.23706688 -182.00634766 300.45581055 C-184.25557383 294.52843804 -186.73300892 288.75248803 -189.56884766 283.08081055 C-192.95759248 276.30332089 -194.9372802 269.90411275 -196.56884766 262.51831055 C-196.98212791 260.65918918 -197.39993106 258.80106613 -197.82275391 256.9440918 C-198.00265869 256.12980713 -198.18256348 255.31552246 -198.36791992 254.4765625 C-198.92914047 252.19549549 -198.92914047 252.19549549 -200.02709961 250.20385742 C-206.44238355 237.11418309 -204.32405251 216.67005268 -204.38134766 202.26831055 C-204.38902161 201.46235443 -204.39669556 200.65639832 -204.40460205 199.82601929 C-204.5275969 183.65918962 -202.51389649 168.0717017 -198.00634766 152.51831055 C-197.63509766 151.17349609 -197.63509766 151.17349609 -197.25634766 149.80151367 C-195.05288873 141.95742944 -192.19986163 134.51142535 -189.00634766 127.01831055 C-188.51134766 125.84913086 -188.01634766 124.67995117 -187.50634766 123.4753418 C-186.00634766 120.20581055 -186.00634766 120.20581055 -184.50634766 117.7175293 C-182.68235994 114.66329986 -181.40024779 111.47720883 -180.00634766 108.20581055 C-167.08417257 83.09290426 -147.36546661 60.36583329 -125.00634766 43.20581055 C-124.47912109 42.79153809 -123.95189453 42.37726562 -123.40869141 41.95043945 C-115.62098255 35.84991694 -107.50741476 30.53573238 -98.94384766 25.58081055 C-98.05133301 25.05962646 -97.15881836 24.53844238 -96.23925781 24.00146484 C-91.83786409 21.51178338 -88.15821185 19.56111153 -83.00634766 19.20581055 C-83.00634766 18.54581055 -83.00634766 17.88581055 -83.00634766 17.20581055 C-82.11173828 16.8912793 -81.21712891 16.57674805 -80.29541016 16.25268555 C-78.48169922 15.61073242 -78.48169922 15.61073242 -76.63134766 14.95581055 C-75.44798828 14.5381543 -74.26462891 14.12049805 -73.04541016 13.69018555 C-70.08531974 12.63070672 -67.19744494 11.44715449 -64.29931641 10.22924805 C-58.56266843 7.91974517 -52.70822164 6.47641114 -46.69384766 5.08081055 C-45.65550781 4.82944336 -44.61716797 4.57807617 -43.54736328 4.3190918 C-40.37521172 3.56877483 -37.19667821 2.87438515 -34.00634766 2.20581055 C-33.07032715 2.00205811 -32.13430664 1.79830566 -31.16992188 1.58837891 C-20.86420117 -0.34084243 -10.44315193 -0.06124316 0 0 Z " fill="#3B4C5C" transform="translate(220.00634765625,18.794189453125)"/>
<path d="M0 0 C0.48823193 13.4468594 0.86049481 26.89158839 1.08805561 40.34552956 C1.19732877 46.59455573 1.34525833 52.83748966 1.58422852 59.08300781 C1.81375872 65.1201395 1.93821436 71.1514481 1.9924221 77.19260788 C2.03100033 79.48740777 2.10636006 81.7819147 2.22033119 84.07420731 C3.05043216 101.47459109 3.05043216 101.47459109 -1.99826431 107.3094101 C-7.74771951 112.25091513 -14.2500491 115.64055006 -21 119 C-22.82275167 119.98974468 -24.64092466 120.9879788 -26.4539032 121.99551392 C-30.2721437 124.11446625 -34.13670736 126.10844997 -38.05371094 128.03808594 C-39.65367847 128.82883758 -41.23919005 129.64877263 -42.8203125 130.4765625 C-50.9752495 134.54092017 -59.86074761 136.79703137 -68.57421875 139.3515625 C-71.86526669 140.32175087 -75.06427166 141.37388226 -78.25390625 142.63671875 C-90.81915811 147.20947464 -104.95143583 146 -118 146 C-118 114.98 -118 83.96 -118 52 C-113.05 49.69 -108.1 47.38 -103 45 C-97.32316577 42.26716572 -97.32316577 42.26716572 -91.66210938 39.50195312 C-88.12585513 37.80521517 -85.99346131 37 -82 37 C-82 36.34 -82 35.68 -82 35 C-79.08881787 33.65445055 -76.17024347 32.32575471 -73.25 31 C-72.425 30.6184375 -71.6 30.236875 -70.75 29.84375 C-69.95078125 29.4828125 -69.1515625 29.121875 -68.328125 28.75 C-67.5949707 28.41484375 -66.86181641 28.0796875 -66.10644531 27.734375 C-64 27 -64 27 -60 27 C-60 26.34 -60 25.68 -60 25 C-59.2471875 24.66379639 -58.494375 24.32759277 -57.71875 23.98120117 C-54.14530499 22.38448056 -50.57254039 20.78624317 -47 19.1875 C-46.3507254 18.89709839 -45.70145081 18.60669678 -45.03250122 18.30749512 C-34.79243941 13.72565533 -24.58293079 9.08311021 -14.41601562 4.34057617 C-13.49369141 3.91365479 -12.57136719 3.4867334 -11.62109375 3.046875 C-10.42117798 2.48758301 -10.42117798 2.48758301 -9.19702148 1.91699219 C-5.99392512 0.58008476 -3.48038731 0 0 0 Z " fill="#FCFCFD" transform="translate(346,275)"/>
<path d="M0 0 C3.59994378 0.65866244 6.22336935 1.49767488 9.375 3.375 C14.07871944 6.07828704 18.89961949 8.14750911 23.92578125 10.1875 C24.98152344 10.620625 26.03726563 11.05375 27.125 11.5 C28.11757812 11.9021875 29.11015625 12.304375 30.1328125 12.71875 C32.91113668 13.96028996 35.4006851 15.42582744 38 17 C39.23392901 17.51915306 40.48411933 18.00201541 41.75 18.4375 C48.16344443 20.75312927 54.16575245 23.46874491 60 27 C63.91471472 28.76545958 67.88403599 30.35348948 71.875 31.9375 C83.96325664 36.75808332 83.96325664 36.75808332 88.5625 39.5625 C91.15638184 41.09222519 93.79779509 42.0387704 96.625 43.05078125 C100.53244939 44.61247566 104.23486389 46.57340635 107.97265625 48.5 C111.2553875 50.12654039 114.63262113 51.55683763 118 53 C118 84.02 118 115.04 118 147 C106.09099231 147 95.54777117 146.93325915 84 145 C84 144.34 84 143.68 84 143 C82.91203125 143.06574219 81.8240625 143.13148438 80.703125 143.19921875 C75.07979629 143.19303655 70.06454422 141.51310184 64.75 139.8125 C63.73236572 139.49369873 62.71473145 139.17489746 61.66625977 138.84643555 C52.1095249 135.80555206 43.36119481 132.63471824 35 127 C33.47456422 126.39170058 31.93792415 125.81117809 30.39453125 125.25 C25.03646454 123.14747364 20.52419434 120.3357586 15.8125 117.0625 C15.05775391 116.55009766 14.30300781 116.03769531 13.52539062 115.50976562 C11.33979868 114.02053544 9.16493112 112.51912429 7 111 C6.43016199 110.70678989 5.86032398 110.41357979 5.27321815 110.11148453 C2.34640583 108.43651409 0.349115 107.17790842 -0.63675022 103.85161495 C-0.86349145 101.11227319 -0.86574111 98.44991577 -0.79467773 95.7019043 C-0.79569992 94.66729568 -0.79672211 93.63268707 -0.79777527 92.56672668 C-0.79290348 89.15150706 -0.73847725 85.73897046 -0.68359375 82.32421875 C-0.67053621 79.95483358 -0.66057278 77.5854295 -0.65357971 75.21601868 C-0.6268671 68.98318191 -0.55811428 62.75148912 -0.48065186 56.519104 C-0.40901341 50.15807572 -0.37706675 43.79686238 -0.34179688 37.43554688 C-0.26674874 24.95652894 -0.14729372 12.47835964 0 0 Z " fill="#FDFDFD" transform="translate(100,274)"/>
<path d="M0 0 C0 9.57 0 19.14 0 29 C-2.97 29.66 -5.94 30.32 -9 31 C-9 31.66 -9 32.32 -9 33 C-10.26839526 33.50615298 -11.53983102 34.00469099 -12.8125 34.5 C-13.52019531 34.7784375 -14.22789062 35.056875 -14.95703125 35.34375 C-17 36 -17 36 -20 36 C-20 36.66 -20 37.32 -20 38 C-20.71800781 38.25652344 -21.43601562 38.51304687 -22.17578125 38.77734375 C-30.23834106 41.75938642 -37.93165149 45.24988297 -45.63793945 49.05249023 C-46.41999756 49.43348877 -47.20205566 49.8144873 -48.0078125 50.20703125 C-48.70535645 50.5522583 -49.40290039 50.89748535 -50.12158203 51.25317383 C-52 52 -52 52 -55 52 C-55 52.66 -55 53.32 -55 54 C-56.60149886 54.67305018 -58.20631029 55.33822227 -59.8125 56 C-60.70582031 56.37125 -61.59914063 56.7425 -62.51953125 57.125 C-65 58 -65 58 -68 58 C-68 58.66 -68 59.32 -68 60 C-69.26839526 60.50615298 -70.53983102 61.00469099 -71.8125 61.5 C-72.52019531 61.7784375 -73.22789062 62.056875 -73.95703125 62.34375 C-76 63 -76 63 -79 63 C-79 63.66 -79 64.32 -79 65 C-80.26839526 65.50615298 -81.53983102 66.00469099 -82.8125 66.5 C-83.52019531 66.7784375 -84.22789062 67.056875 -84.95703125 67.34375 C-87 68 -87 68 -90 68 C-90 68.66 -90 69.32 -90 70 C-91.17054932 70.43155396 -91.17054932 70.43155396 -92.36474609 70.87182617 C-101.85987223 74.43902858 -110.96978561 78.62359371 -120.12890625 82.97851562 C-121.23363281 83.49736328 -122.33835938 84.01621094 -123.4765625 84.55078125 C-124.46736816 85.02169189 -125.45817383 85.49260254 -126.47900391 85.9777832 C-129 87 -129 87 -132 87 C-132 87.66 -132 88.32 -132 89 C-134.97 89.495 -134.97 89.495 -138 90 C-138 90.66 -138 91.32 -138 92 C-138.99 92 -139.98 92 -141 92 C-141 81.44 -141 70.88 -141 60 C-135 57 -135 57 -131 57 C-131 56.34 -131 55.68 -131 55 C-129.08717875 54.15787744 -127.16957527 53.32661136 -125.25 52.5 C-124.18265625 52.0359375 -123.1153125 51.571875 -122.015625 51.09375 C-119 50 -119 50 -115 50 C-115 49.34 -115 48.68 -115 48 C-111.62902617 46.50178941 -109.79557881 46 -106 46 C-106 45.34 -106 44.68 -106 44 C-104.40478516 43.32130859 -104.40478516 43.32130859 -102.77734375 42.62890625 C-101.1639627 41.94033796 -99.55069338 41.25150785 -97.9375 40.5625 C-97.04877197 40.18359619 -96.16004395 39.80469238 -95.24438477 39.41430664 C-89.37584138 36.90277103 -83.52475154 34.35537608 -77.68577576 31.7759552 C-74.15960217 30.21835454 -70.63115957 28.66592316 -67.10281372 27.11325073 C-65.32582986 26.32936925 -63.55000822 25.54284782 -61.77536011 24.75369263 C-59.24763639 23.62995532 -56.71606443 22.51533335 -54.18359375 21.40234375 C-53.41768921 21.05899994 -52.65178467 20.71565613 -51.8626709 20.36190796 C-48.29131346 18.80204817 -45.95620079 18 -42 18 C-42 17.34 -42 16.68 -42 16 C-38.3890235 14.46941362 -34.777768 12.93948757 -31.16625977 11.41015625 C-29.3379074 10.63576125 -27.50977245 9.86085298 -25.68164062 9.0859375 C-24.52470703 8.59609375 -23.36777344 8.10625 -22.17578125 7.6015625 C-21.11270752 7.15119629 -20.04963379 6.70083008 -18.9543457 6.23681641 C-17.97941162 5.82866699 -17.00447754 5.42051758 -16 5 C-14.69518677 4.42451416 -14.69518677 4.42451416 -13.36401367 3.83740234 C-11 3 -11 3 -7 3 C-7 2.34 -7 1.68 -7 1 C-4 0 -4 0 0 0 Z " fill="#F9F9F9" transform="translate(369,225)"/>
<path d="M0 0 C3.92043194 0.68125539 5.85545525 1.59534813 9 4 C12.28489486 5.53761036 15.59749326 6.84866587 18.9921875 8.125 C24.99219798 10.38382748 30.71932052 12.79575092 36.40625 15.75 C40.44233983 17.69510353 44.64172864 19.17940449 48.8359375 20.74609375 C52.53874119 22.21350114 56.00833276 23.98248352 59.5390625 25.81640625 C62.14788964 27.07112787 64.76729659 28.04699839 67.5 29 C72.12038109 30.61191261 76.38669452 32.6000367 80.73046875 34.84375 C83.75770196 36.38602372 86.86633348 37.68955764 90 39 C91.37555915 39.62376841 92.75051304 40.24887255 94.125 40.875 C98.99494323 43.05894361 103.97750942 44.90958982 108.984375 46.75390625 C111.86638257 47.94478762 114.36007607 49.35229238 117 51 C120.36166877 52.54076485 123.73467473 53.90086748 127.19921875 55.1953125 C128.35035156 55.62585938 129.50148437 56.05640625 130.6875 56.5 C131.78449219 56.9021875 132.88148438 57.304375 134.01171875 57.71875 C136.90897571 58.96097259 138.78690708 59.77397018 141 62 C141.45410156 65.09448242 141.45410156 65.09448242 141.390625 68.85546875 C141.38496521 69.51710526 141.37930542 70.17874176 141.37347412 70.86042786 C141.35111247 72.97019332 141.30092371 75.07824952 141.25 77.1875 C141.2299344 78.61911606 141.21168372 80.0507588 141.1953125 81.48242188 C141.15125069 84.98883515 141.08222777 88.49425072 141 92 C137.37428119 91.42782687 134.2099266 90.86226001 130.875 89.3125 C129.73224609 88.78462891 129.73224609 88.78462891 128.56640625 88.24609375 C124.64694666 86.34303803 120.76526015 84.36732318 116.89453125 82.3671875 C113.9799868 80.99054707 111.07519611 79.95672768 108 79 C108 78.34 108 77.68 108 77 C107.175 76.9175 106.35 76.835 105.5 76.75 C101.9320956 75.98544906 99.39113777 74.78958602 96.19921875 73.10546875 C93.86119936 71.93022987 91.49823469 70.95541221 89.0625 70 C77.27543176 65.37584246 77.27543176 65.37584246 72.3125 62.375 C69.6394068 60.78559323 66.96889545 59.89757304 64 59 C64 58.34 64 57.68 64 57 C63.28457031 56.88269531 62.56914062 56.76539063 61.83203125 56.64453125 C58.874698 55.97148299 56.43216322 54.97046124 53.6875 53.6875 C52.71941406 53.23761719 51.75132812 52.78773438 50.75390625 52.32421875 C48.5223054 51.25115111 46.32128541 50.14244146 44.125 49 C39.62475293 46.70829307 34.91072488 45.00929468 30.19140625 43.2265625 C25.17513657 41.2986449 20.17908845 39.35437634 15.60546875 36.51171875 C12.04325914 34.44488949 8.31559817 33.27548572 4.42578125 31.96484375 C2 31 2 31 0 29 C-0.22705078 26.11083984 -0.22705078 26.11083984 -0.1953125 22.4609375 C-0.18564453 20.50800781 -0.18564453 20.50800781 -0.17578125 18.515625 C-0.15906929 17.13541405 -0.14213939 15.75520571 -0.125 14.375 C-0.11497006 12.98698548 -0.10584423 11.59896411 -0.09765625 10.2109375 C-0.07401863 6.80711974 -0.04106867 3.40364494 0 0 Z " fill="#F9FAFA" transform="translate(77,224)"/>
<path d="M0 0 C5.69892319 0.39901137 8.72818468 2.57235677 12.9375 6.125 C13.53884766 6.58648437 14.14019531 7.04796875 14.75976562 7.5234375 C16.46484375 8.9453125 16.46484375 8.9453125 19 12 C18.93817926 16.19939441 18.16104189 19.39826352 16 23 C15.34 23 14.68 23 14 23 C13.505 24.485 13.505 24.485 13 26 C12.34 26.33 11.68 26.66 11 27 C9.91537723 29.28341636 9.01768703 31.61466315 8.09765625 33.96875 C7 36 7 36 4 37 C2.45831826 39.07475833 1.06467161 41.13204797 -0.3125 43.3125 C-1.20866159 44.69418716 -2.10722754 46.07431692 -3.0078125 47.453125 C-3.49024414 48.19240234 -3.97267578 48.93167969 -4.46972656 49.69335938 C-7.13073549 53.70440155 -9.91269962 57.62972123 -12.6875 61.5625 C-17.71581417 68.70383453 -22.66277629 75.89490448 -27.5625 83.125 C-32.39914155 90.24564621 -37.29438715 97.31832443 -42.3125 104.3125 C-42.857854 105.07771973 -43.40320801 105.84293945 -43.96508789 106.63134766 C-44.4677417 107.32663574 -44.97039551 108.02192383 -45.48828125 108.73828125 C-46.14630737 109.65154175 -46.14630737 109.65154175 -46.81762695 110.58325195 C-48.5584173 112.66910915 -49.97567506 112.99478751 -52.625 113.5625 C-57.98096084 112.66983986 -60.51758024 108.96039894 -64 105 C-64.55429688 104.37609375 -65.10859375 103.7521875 -65.6796875 103.109375 C-66.80274753 101.83048368 -67.91823675 100.5449169 -69.02734375 99.25390625 C-70.96527042 97.03968113 -72.9523424 94.87667532 -74.95361328 92.71972656 C-79.86386232 87.42657594 -84.52838289 82.02603122 -89.02734375 76.375 C-90.93641677 73.94391294 -90.93641677 73.94391294 -93.31640625 72 C-95 70 -95 70 -95.14453125 67.6796875 C-93.44923548 63.71049673 -90.73949047 61.12065622 -87.6875 58.125 C-87.10548828 57.51914063 -86.52347656 56.91328125 -85.92382812 56.2890625 C-85.35470703 55.721875 -84.78558594 55.1546875 -84.19921875 54.5703125 C-83.42324341 53.79324951 -83.42324341 53.79324951 -82.6315918 53.00048828 C-81 52 -81 52 -78.98461914 52.16381836 C-76.7684605 53.09755478 -75.66279195 54.03929136 -74.046875 55.80859375 C-73.51368652 56.38649658 -72.98049805 56.96439941 -72.43115234 57.55981445 C-71.87637207 58.17945068 -71.3215918 58.79908691 -70.75 59.4375 C-69.88882568 60.37952271 -69.88882568 60.37952271 -69.01025391 61.34057617 C-64.97166222 65.79869545 -61.18721209 70.38698469 -57.5859375 75.20703125 C-56.02929312 77.26861171 -56.02929312 77.26861171 -53 78 C-52.78085938 77.33484375 -52.56171875 76.6696875 -52.3359375 75.984375 C-50.5667668 72.03219251 -48.15771475 68.74771112 -45.625 65.25 C-44.53371841 63.72405541 -43.44257644 62.19801097 -42.3515625 60.671875 C-41.7937207 59.89521484 -41.23587891 59.11855469 -40.66113281 58.31835938 C-38.08740396 54.72633569 -35.54423266 51.11294485 -33 47.5 C-30.00804459 43.25594979 -27.01251705 39.01464389 -24 34.78515625 C-18.16350019 26.57725233 -12.46601267 18.29442968 -6.91992188 9.88696289 C-4.69715555 6.52041711 -2.4821744 3.18420352 0 0 Z " fill="#F1A979" transform="translate(295,99)"/>
<path d="M0 0 C4.29641368 0.4773793 6.0725589 3.00602614 9 6 C11.11849355 7.46755978 13.24916388 8.8973442 15.42578125 10.27734375 C17 12 17 12 17.5234375 14.7578125 C16.84415744 18.96529347 14.86122334 21.65127374 12.3125 24.9375 C11.65991211 25.81051758 11.65991211 25.81051758 10.99414062 26.70117188 C10.11541872 27.87670652 9.23235179 29.04900573 8.3449707 30.21801758 C3.39748588 36.66442519 3.39748588 36.66442519 0 44 C-0.66 44 -1.32 44 -2 44 C-2.23976563 44.52207031 -2.47953125 45.04414062 -2.7265625 45.58203125 C-4.39998642 48.75948342 -6.37539012 51.71006106 -8.375 54.6875 C-8.81561768 55.34613037 -9.25623535 56.00476074 -9.71020508 56.68334961 C-13.4452198 62.23652898 -17.29737593 67.70229442 -21.17626953 73.15551758 C-26.11189203 80.11253672 -30.89747504 87.16891128 -35.68505859 94.22827148 C-39.54035287 99.89968367 -43.45817365 105.49629257 -47.58203125 110.9765625 C-48.94395219 112.92001993 -50.00288479 114.85012233 -51 117 C-55.07277641 117.35936262 -57.25321329 117.5423094 -60.625 115.09375 C-61.40875 114.2378125 -62.1925 113.381875 -63 112.5 C-63.85464844 111.5821875 -64.70929688 110.664375 -65.58984375 109.71875 C-66.38519531 108.8215625 -67.18054688 107.924375 -68 107 C-68.62003906 106.3090625 -69.24007812 105.618125 -69.87890625 104.90625 C-71.00307864 103.63340516 -72.11769372 102.35205627 -73.22265625 101.0625 C-75.2797624 98.67535264 -77.38684772 96.33765244 -79.5 94 C-83.37636051 89.70315292 -87.20043587 85.36471669 -91 81 C-92.31213495 79.49968066 -93.62462751 77.99967399 -94.9375 76.5 C-95.95833333 75.33333333 -96.97916667 74.16666667 -98 73 C-95.97885812 68.55046671 -92.99028627 65.6590552 -89.5625 62.25 C-88.97662109 61.64800781 -88.39074219 61.04601562 -87.78710938 60.42578125 C-87.21927734 59.85730469 -86.65144531 59.28882813 -86.06640625 58.703125 C-85.55021729 58.18395508 -85.03402832 57.66478516 -84.50219727 57.12988281 C-83 56 -83 56 -80 56 C-78.5625 57.29296875 -78.5625 57.29296875 -77 59.1875 C-76.39542969 59.90808594 -75.79085937 60.62867188 -75.16796875 61.37109375 C-74.45253906 62.23863281 -73.73710937 63.10617188 -73 64 C-71.59529284 65.67525859 -70.18624143 67.34675813 -68.77539062 69.0168457 C-67.81691743 70.15239331 -66.86108457 71.29017601 -65.90820312 72.43041992 C-63.39244078 75.4262585 -60.81558732 78.2833209 -58 81 C-54.1474501 79.7158167 -53.56635464 78.24881817 -51.3671875 74.875 C-50.29464722 73.24534302 -50.29464722 73.24534302 -49.20043945 71.58276367 C-48.63276352 70.70809952 -48.63276352 70.70809952 -48.05361938 69.81576538 C-46.45356773 67.35074704 -44.83587224 64.89749692 -43.21913147 62.44340515 C-42.38304818 61.17391243 -41.54788422 59.9038138 -40.71360779 58.63313293 C-36.64487521 52.43995444 -32.48970601 46.30809907 -28.3125 40.1875 C-27.61979004 39.17196045 -26.92708008 38.1564209 -26.21337891 37.11010742 C-24.83152607 35.0845876 -23.44936808 33.05927591 -22.06689453 31.03417969 C-19.9636157 27.94658822 -17.86943144 24.85299582 -15.77734375 21.7578125 C-15.09953857 20.7572583 -14.4217334 19.7567041 -13.72338867 18.72583008 C-12.44902304 16.84447352 -11.17688812 14.96160313 -9.9074707 13.0769043 C-6.80628176 8.50735103 -3.62727869 4.16591594 0 0 Z " fill="#65CCDC" transform="translate(311,17)"/>
<path d="M0 0 C5.05300245 0.67652207 7.51986372 4.23979214 10.8125 7.8125 C11.42287109 8.44220703 12.03324219 9.07191406 12.66210938 9.72070312 C13.5196582 10.64206055 13.5196582 10.64206055 14.39453125 11.58203125 C14.91893799 12.14124268 15.44334473 12.7004541 15.98364258 13.27661133 C17 15 17 15 16.78637695 17.01879883 C15.48989354 20.28516421 13.39922166 23.02807149 11.375 25.875 C10.36777851 27.31460693 9.36130923 28.75474034 8.35546875 30.1953125 C7.81325684 30.96907227 7.27104492 31.74283203 6.71240234 32.54003906 C4.30455543 35.99904469 1.93889407 39.48610305 -0.42773438 42.97338867 C-6.1221631 51.36234435 -11.84840226 59.72990601 -17.625 68.0625 C-18.4763855 69.30241699 -18.4763855 69.30241699 -19.3449707 70.56738281 C-27.00688278 81.56898514 -27.00688278 81.56898514 -31.98046875 82.64453125 C-35.98927505 81.78883521 -37.79536957 79.72096487 -40.3125 76.6875 C-40.78977539 76.14061523 -41.26705078 75.59373047 -41.75878906 75.03027344 C-45.41924408 70.80329036 -48.90122763 66.42923384 -52.40234375 62.0703125 C-56.29557363 57.3667199 -60.56113919 52.98629273 -64.77246094 48.56933594 C-66.52771007 46.72435576 -68.26608437 44.86500751 -70 43 C-70.82886719 42.12085938 -71.65773437 41.24171875 -72.51171875 40.3359375 C-74 38 -74 38 -74.0546875 35.4765625 C-72.66934121 32.22356419 -70.81953533 30.64778198 -68.125 28.375 C-67.24070313 27.61960937 -66.35640625 26.86421875 -65.4453125 26.0859375 C-64.63835937 25.39757812 -63.83140625 24.70921875 -63 24 C-62.48179687 23.39414063 -61.96359375 22.78828125 -61.4296875 22.1640625 C-60 21 -60 21 -58.08203125 21.05859375 C-55.3612555 22.28881318 -53.76096222 23.91538015 -51.6875 26.0625 C-50.90117187 26.87589844 -50.11484375 27.68929687 -49.3046875 28.52734375 C-45.51624196 32.59189633 -41.87670334 36.76438796 -38.3046875 41.01953125 C-37.77101562 41.65246094 -37.23734375 42.28539062 -36.6875 42.9375 C-36.21699219 43.50339844 -35.74648437 44.06929687 -35.26171875 44.65234375 C-34.02049527 46.13445384 -34.02049527 46.13445384 -32 47 C-31.73155273 46.4328125 -31.46310547 45.865625 -31.18652344 45.28125 C-29.94186614 42.88822987 -28.5379588 40.72644797 -27.015625 38.5 C-26.41637207 37.62174561 -25.81711914 36.74349121 -25.19970703 35.83862305 C-24.55630371 34.90187744 -23.91290039 33.96513184 -23.25 33 C-22.58983887 32.03553955 -21.92967773 31.0710791 -21.24951172 30.07739258 C-16.5732031 23.25856319 -11.86187408 16.46437794 -7.125 9.6875 C-6.52461914 8.82833984 -5.92423828 7.96917969 -5.30566406 7.08398438 C-4.75362305 6.29701172 -4.20158203 5.51003906 -3.6328125 4.69921875 C-3.14699707 4.00658936 -2.66118164 3.31395996 -2.16064453 2.6003418 C-1 1 -1 1 0 0 Z " fill="#86D661" transform="translate(209,99)"/>
<path d="M0 0 C2.875 2.375 2.875 2.375 5 5 C5 5.66 5 6.32 5 7 C3.65808594 7.47179687 3.65808594 7.47179687 2.2890625 7.953125 C-3.94358752 10.15913759 -10.15408857 12.38744013 -16.2734375 14.89453125 C-18.47988196 15.7891212 -20.69230863 16.65642305 -22.9140625 17.51171875 C-23.59863525 17.77799072 -24.28320801 18.0442627 -24.98852539 18.31860352 C-26.35286867 18.84908331 -27.71920822 19.37446204 -29.08764648 19.89428711 C-32.72625068 21.123137 -32.72625068 21.123137 -35 24 C-34.35933594 24.09796875 -33.71867187 24.1959375 -33.05859375 24.296875 C-28.06799537 25.1596312 -24.17664954 26.17853198 -19.8359375 28.9296875 C-16.89575477 30.64375147 -13.73802862 31.76284979 -10.5703125 32.98828125 C-5.96851823 34.7996258 -1.42410628 36.78794686 3 39 C9.38141402 38.99211197 14.78385282 37.20387459 20.53515625 34.62109375 C21.29928329 34.28956802 22.06341034 33.9580423 22.85069275 33.61647034 C25.25978516 32.56817119 27.66107114 31.50322001 30.0625 30.4375 C31.70719296 29.718281 33.35237155 29.00017146 34.99804688 28.28320312 C39.00442118 26.53489914 43.00389117 24.77163473 47 23 C44.07651242 19.71669856 41.24542505 19.04133067 37 18 C37.57352893 14.12867972 39.48704352 11.91827204 42 9 C50.57071151 10.55403011 58.63047676 13.35399622 66 18 C66.66 18.33 67.32 18.66 68 19 C68 21.31 68 23.62 68 26 C67.18877686 26.27610107 66.37755371 26.55220215 65.54174805 26.83666992 C54.99453483 30.50587928 44.79374816 34.84310558 34.55639648 39.29321289 C32.37935014 40.23772772 30.19959927 41.17576687 28.01953125 42.11328125 C27.35709915 42.40382889 26.69466705 42.69437653 26.01216125 42.99372864 C23.15816091 44.21902719 21.14255714 45 18 45 C18 45.66 18 46.32 18 47 C6.2231405 51.39669421 6.2231405 51.39669421 1.2421875 49.23828125 C-0.09066604 48.55566598 -1.41448912 47.85522962 -2.73046875 47.140625 C-5.26600575 45.86631036 -7.82097919 44.93376659 -10.5 44 C-13.69092916 42.87686259 -16.70460526 41.7185111 -19.6875 40.125 C-23.64130944 38.05006695 -27.75460258 36.53904934 -31.9375 35 C-50.06716677 28.31537669 -50.06716677 28.31537669 -53 25 C-53.375 21.9375 -53.375 21.9375 -53 19 C-50.60099826 16.60099826 -48.85497469 16.1836208 -45.625 15.1875 C-41.42548085 13.83747664 -37.36440133 12.36793405 -33.3125 10.625 C-27.55799334 8.16313821 -21.7052759 6.08014816 -15.78637695 4.05517578 C-2.83925936 -0.40560848 -2.83925936 -0.40560848 0 0 Z " fill="#3D4F5E" transform="translate(216,198)"/>
<path d="M0 0 C2.6708388 -0.48421696 4.40852749 -0.38378117 6.70898438 1.10888672 C8.60930547 2.66663642 10.43618865 4.27985705 12.25 5.9375 C13.20519531 6.78344727 13.20519531 6.78344727 14.1796875 7.64648438 C18.35863095 11.35863095 18.35863095 11.35863095 20 13 C20.04063832 14.66617115 20.042721 16.33388095 20 18 C18.02 18.99 18.02 18.99 16 20 C15.40832031 19.33613281 14.81664062 18.67226562 14.20703125 17.98828125 C7.60596762 9.61950408 7.60596762 9.61950408 -1 4 C-0.67 2.68 -0.34 1.36 0 0 Z " fill="#A3E575" transform="translate(233,63)"/>
<path d="M0 0 C5 1 5 1 7 3 C5.35 3.33 3.7 3.66 2 4 C1.67 37.66 1.34 71.32 1 106 C0.67 106 0.34 106 0 106 C0 71.02 0 36.04 0 0 Z " fill="#AFB6BC" transform="translate(100,274)"/>
<path d="M0 0 C0.66 0.33 1.32 0.66 2 1 C-1.37498736 4.42431819 -4.75641049 7.84209712 -8.14404297 11.25390625 C-9.29624094 12.41617986 -10.44663992 13.58023967 -11.59521484 14.74609375 C-13.24370414 16.41876279 -14.89849505 18.08496235 -16.5546875 19.75 C-17.06933563 20.2749707 -17.58398376 20.79994141 -18.11422729 21.34082031 C-19.37208852 22.59907712 -20.68187263 23.80502498 -22 25 C-22.66 25 -23.32 25 -24 25 C-22.64359783 21.96853036 -21.12164566 19.8743218 -18.76953125 17.5390625 C-18.13080078 16.90226562 -17.49207031 16.26546875 -16.83398438 15.609375 C-16.16689453 14.95453125 -15.49980469 14.2996875 -14.8125 13.625 C-14.16474609 12.97789063 -13.51699219 12.33078125 -12.84960938 11.6640625 C-8.7209984 7.57257191 -4.45520706 3.73289723 0 0 Z " fill="#536670" transform="translate(91,65)"/>
<path d="M0 0 C0.99 0.33 1.98 0.66 3 1 C-1.95 5.95 -6.9 10.9 -12 16 C-12.33 15.01 -12.66 14.02 -13 13 C-8.71 8.71 -4.42 4.42 0 0 Z " fill="#F4BA90" transform="translate(214,151)"/>
<path d="M0 0 C2.0625 0.4375 2.0625 0.4375 4 1 C3.01 1.33 2.02 1.66 1 2 C0.67 2.99 0.34 3.98 0 5 C-0.66 5 -1.32 5 -2 5 C-2.226875 5.53625 -2.45375 6.0725 -2.6875 6.625 C-4.43382056 9.78500863 -6.6402849 12.2676983 -9 15 C-9 10.98763758 -7.45029655 9.55593108 -5.0625 6.375 C-4.33160156 5.39273437 -3.60070312 4.41046875 -2.84765625 3.3984375 C-1 1 -1 1 0 0 Z " fill="#8BE6E0" transform="translate(311,17)"/>
<path d="M0 0 C0.99 0.33 1.98 0.66 3 1 C2.34773438 1.56847656 1.69546875 2.13695313 1.0234375 2.72265625 C-4.06885149 7.22159593 -8.72733637 11.71538972 -13 17 C-13.33 15.68 -13.66 14.36 -14 13 C-13.15695313 12.22914063 -12.31390625 11.45828125 -11.4453125 10.6640625 C-10.33851968 9.65106568 -9.23175006 8.63804353 -8.125 7.625 C-7.56941406 7.11710937 -7.01382813 6.60921875 -6.44140625 6.0859375 C-4.25988219 4.0883974 -2.09183907 2.09183907 0 0 Z " fill="#9CE177" transform="translate(149,120)"/>
<path d="M0 0 C0.99 0 1.98 0 3 0 C3.66 1.65 4.32 3.3 5 5 C2.03 5.66 -0.94 6.32 -4 7 C-2.92598892 4.08482708 -2.22189824 2.22189824 0 0 Z " fill="#4E5F6A" transform="translate(194,175)"/>
<path d="M0 0 C5 1 5 1 7 3 C5.35 3.33 3.7 3.66 2 4 C1.67 7.96 1.34 11.92 1 16 C0.67 16 0.34 16 0 16 C0 10.72 0 5.44 0 0 Z " fill="#BDC4C9" transform="translate(100,274)"/>
<path d="M0 0 C0.71484375 1.734375 0.71484375 1.734375 1 4 C-0.43359375 6.140625 -0.43359375 6.140625 -2.4375 8.25 C-3.09621094 8.95640625 -3.75492187 9.6628125 -4.43359375 10.390625 C-4.95050781 10.92171875 -5.46742188 11.4528125 -6 12 C-6 8.36804504 -5.04546845 7.25286089 -3 4.3125 C-2.443125 3.50425781 -1.88625 2.69601563 -1.3125 1.86328125 C-0.879375 1.24839844 -0.44625 0.63351563 0 0 Z " fill="#88E0E0" transform="translate(289,48)"/>
<path d="M0 0 C-0.66 1.32 -1.32 2.64 -2 4 C-3.65 3.67 -5.3 3.34 -7 3 C-6.67 2.01 -6.34 1.02 -6 0 C-3.50907189 -1.24546405 -2.58919267 -0.7767578 0 0 Z " fill="#C3C9CC" transform="translate(188,219)"/>
<path d="M0 0 C0.66 0.33 1.32 0.66 2 1 C-1.17320782 4.53586014 -3.16743695 6.58578031 -8 7 C-5.4837822 4.39391727 -2.94865641 2.10618315 0 0 Z " fill="#586D7A" transform="translate(344,380)"/>
<path d="M0 0 C0.66 0.66 1.32 1.32 2 2 C-1.625 7.875 -1.625 7.875 -5 9 C-3.7508258 5.54074837 -2.32472205 2.85306797 0 0 Z " fill="#87E3DE" transform="translate(298,35)"/>
</svg>
